<?xml version="1.0" ?><!DOCTYPE svg  PUBLIC '-//W3C//DTD SVG 1.1//EN'  'http://www.w3.org/Graphics/SVG/1.1/DTD/svg11.dtd'><svg enable-background="new 0 0 374.375 512" height="512px" id="Layer_1" version="1.1" viewBox="0 0 374.375 512" width="374.375px" xml:space="preserve" xmlns="http://www.w3.org/2000/svg" xmlns:xlink="http://www.w3.org/1999/xlink"><g id="meanicons_x5F_42"><g><rect height="200.465" width="41.224" x="166.921" y="310.535"/><path d="M82.382,216.127c19.961,0,36.148-16.205,36.148-36.121c0-13.627-7.57-25.319-18.629-31.467V78.928h63.309    c13.443,0,24.326-10.852,24.326-24.346V23.358C187.536,9.875,176.653-1,163.21-1H99.901H89.194H64.868v24.357v31.225v93.957    c-11.084,6.146-18.635,17.84-18.635,31.467C46.233,199.922,62.413,216.127,82.382,216.127z"/><path d="M360.407,110.797h-37.658h-46.396H115.826v29.446c11.688,9.778,18.629,24.308,18.629,39.763    c0,28.701-23.363,52.041-52.072,52.041c-28.715,0-52.068-23.34-52.068-52.041c0-15.455,6.957-29.983,18.629-39.763v-29.446H14.666    c-7.904,0-14.318,6.408-14.318,14.317v10.42V260.65v34.457h374.375V260.65V135.534v-10.42    C374.721,117.205,368.316,110.797,360.407,110.797z"/></g></g><g id="Layer_1_1_"/></svg>